# xmcd CD database file
#
# Track frame offsets:
#	150
#	23160
#	43862
#	72445
#	99590
#	118782
#	142247
#	163877
#	184002
#	209957
#
# Disc length: 3087 seconds
#
# Revision: 0
# Processed by: cddbd v1.5.1PL0 Copyright (c) Steve Scherf et al.
# Submitted via: CDex 1.51
#
DISCID=a10c0d0a
DTITLE=John Campbell - Turning Ponit
DYEAR=1990
DGENRE=Jazz
TTITLE0=You Stepped out of a Dream
TTITLE1=Chicken Red
TTITLE2=Quicksilver
TTITLE3=Tin Tin Deo
TTITLE4=in Orbit
TTITLE5=Turning Point
TTITLE6=Shaw ´nuff
TTITLE7=Canadian Sunset
TTITLE8=Prelude to a Kiss
TTITLE9=This Time The Dream´s on me
EXTD=YEAR: 1990
EXTT0=
EXTT1=
EXTT2=
EXTT3=
EXTT4=
EXTT5=
EXTT6=
EXTT7=
EXTT8=
EXTT9=
PLAYORDER=
